HIERARCHY
ROOT Hips
{
	OFFSET -3.958830 18.904000 13.208200
	CHANNELS 6 Xposition Yposition Zposition Zrotation Yrotation Xrotation 
	JOINT LHipJoint
	{
		OFFSET 0.000000 0.000000 0.000000
		CHANNELS 3 Zrotation Yrotation Xrotation
		JOINT LeftUpLeg
		{
			OFFSET 1.800000 -1.400000 0.085000
			CHANNELS 3 Zrotation Yrotation Xrotation
			JOINT LeftLeg
			{
				OFFSET 2.215000 -6.000000 0.000000
				CHANNELS 3 Zrotation Yrotation Xrotation
				JOINT LeftFoot
				{
					OFFSET 2.500000 -6.900000 0.000000
					CHANNELS 3 Zrotation Yrotation Xrotation
					JOINT LeftToeBase
					{
						OFFSET 0.200000 -0.500000 1.950000
						CHANNELS 3 Zrotation Yrotation Xrotation
						End Site
						{
							OFFSET 0.000000 0.000000 0.000000
						}
					}
				}
			}
		}
	}
	JOINT RHipJoint
	{
		OFFSET 0.000000 0.000000 0.000000
		CHANNELS 3 Zrotation Yrotation Xrotation
		JOINT RightUpLeg
		{
			OFFSET -1.800000 -1.400000 0.085000
			CHANNELS 3 Zrotation Yrotation Xrotation
			JOINT RightLeg
			{
				OFFSET -2.215000 -6.000000 0.000000
				CHANNELS 3 Zrotation Yrotation Xrotation
				JOINT RightFoot
				{
					OFFSET -2.500000 -6.900000 0.000000
					CHANNELS 3 Zrotation Yrotation Xrotation
					JOINT RightToeBase
					{
						OFFSET -0.200000 -0.500000 1.950000
						CHANNELS 3 Zrotation Yrotation Xrotation
						End Site
						{
							OFFSET 0.000000 0.000000 0.000000
						}
					}
				}
			}
		}
	}
	JOINT LowerBack
	{
		OFFSET 0.000000 0.000000 0.000000
		CHANNELS 3 Zrotation Yrotation Xrotation
		JOINT Spine
		{
			OFFSET -0.087000 1.940000 -0.288900
			CHANNELS 3 Zrotation Yrotation Xrotation
			JOINT Spine1
			{
				OFFSET 0.000000 1.950000 0.060000
				CHANNELS 3 Zrotation Yrotation Xrotation
				JOINT Neck
				{
					OFFSET 0.000000 0.000000 0.000000
					CHANNELS 3 Zrotation Yrotation Xrotation
					JOINT Neck1
					{
						OFFSET 0.000000 1.600000 0.340000
						CHANNELS 3 Zrotation Yrotation Xrotation
						JOINT Head
						{
							OFFSET 0.000000 1.667000 -0.240000
							CHANNELS 3 Zrotation Yrotation Xrotation
							End Site
							{
								OFFSET 0.000000 0.000000 0.000000
							}
						}
					}
				}
				JOINT LeftShoulder
				{
					OFFSET 0.000000 0.000000 0.000000
					CHANNELS 3 Zrotation Yrotation Xrotation
					JOINT LeftArm
					{
						OFFSET 2.700000 1.550000 -0.730000
						CHANNELS 3 Zrotation Yrotation Xrotation
						JOINT LeftForeArm
						{
							OFFSET 5.450000 0.000000 0.000000
							CHANNELS 3 Zrotation Yrotation Xrotation
							JOINT LeftHand
							{
								OFFSET 3.450000 0.000000 0.000000
								CHANNELS 3 Zrotation Yrotation Xrotation
								JOINT LeftHandIndex1
								{
									OFFSET 0.750000 0.000000 0.000000
									CHANNELS 3 Zrotation Yrotation Xrotation
									End Site
									{
										OFFSET 0.000000 0.000000 0.000000
									}
								}
							}
						}
					}
				}
				JOINT RightShoulder
				{
					OFFSET 0.000000 0.000000 0.000000
					CHANNELS 3 Zrotation Yrotation Xrotation
					JOINT RightArm
					{
						OFFSET -2.700000 1.550000 -0.730000
						CHANNELS 3 Zrotation Yrotation Xrotation
						JOINT RightForeArm
						{
							OFFSET -5.450000 0.000000 0.000000
							CHANNELS 3 Zrotation Yrotation Xrotation
							JOINT RightHand
							{
								OFFSET -3.450000 0.000000 0.000000
								CHANNELS 3 Zrotation Yrotation Xrotation
								JOINT RightHandIndex1
								{
									OFFSET -0.750000 0.000000 0.000000
									CHANNELS 3 Zrotation Yrotation Xrotation
									End Site
									{
										OFFSET 0.000000 0.000000 0.000000
									}
								}
							}
						}
					}
				}
			}
		}
	}
}
MOTION
Frames: 6
Frame Time: 0.016667
0.548060 16.899810 0.576180 0.312777 9.347300 2.904621 -14.909876 12.631894 2.850739 3.393955 -1.674521 -13.204468 -9.288421 5.283305 7.807241 -0.312731 3.656763 3.491624 -0.129760 -0.201440 -0.296300 18.499618 -11.617440 2.319885 -13.275308 -0.175857 -10.678349 3.529153 -4.365766 9.854415 0.219156 -3.881964 3.233098 0.074540 0.583980 -0.104630 -4.430636 0.331746 -6.689951 5.855899 2.406286 2.062414 -4.655290 2.333334 4.875806 -1.366454 0.369254 -5.902141 0.412381 -3.519616 24.708972 0.656080 -5.484780 7.665310 -30.306993 -1.547796 6.225989 -45.584474 -3.134983 4.658719 160.681832 -57.618780 -155.539085 -4.066544 3.550872 -0.208620 0.422970 -0.566950 0.119430 32.670023 2.613675 0.448459 54.006014 4.500336 -5.226313 2.928585 26.702620 -1.392799 2.229179 -1.512097 -0.302560 0.232880 0.199220 0.020450 
0.532240 16.909050 0.572800 0.117120 8.852907 2.467464 -14.882700 12.626994 2.860202 3.949940 -1.562307 -12.671098 -9.622290 5.308227 7.369095 -0.303716 3.701778 3.458440 -0.109910 -0.191900 -0.273840 18.520827 -11.662804 2.302039 -13.054334 -0.207080 -10.496261 3.192489 -4.378678 10.285338 0.194736 -3.868087 3.222571 0.069060 0.548050 -0.093340 -4.492158 0.405851 -6.710924 6.444519 2.505158 2.236868 -5.316865 2.459710 5.254994 -1.123104 0.205597 -5.996836 0.004272 -3.283159 25.686617 0.988100 -5.392560 6.985200 -30.835836 -2.022078 6.223737 -45.817475 -4.131228 4.779007 157.798340 -56.764736 -150.236927 -4.054790 3.529180 -0.173810 0.391820 -0.537200 0.111490 32.651480 3.177670 0.808035 53.855232 4.927112 -5.246217 3.954832 28.491599 -1.097323 2.217100 -1.514149 -0.289200 0.215410 0.195890 0.008850 
0.508200 16.914030 0.575010 -0.345414 8.526004 2.231841 -14.822147 12.574161 2.827539 4.707613 -1.490744 -12.561544 -9.849776 5.377814 7.300914 -0.311815 3.745862 3.435821 -0.102800 -0.176660 -0.276420 18.588348 -11.687307 2.326491 -12.427303 -0.202483 -10.220938 3.025992 -4.298247 9.904981 0.183229 -3.854469 3.239580 0.080880 0.546990 -0.102150 -4.668696 0.567763 -6.696783 8.012766 2.270288 1.970529 -7.424860 2.148436 5.646640 -0.542651 0.008128 -5.952981 -0.238215 -2.691815 25.885952 1.363790 -4.886520 6.310170 -30.957498 -1.838657 5.838676 -45.801209 -6.038849 5.648180 153.811806 -54.142774 -140.982794 -4.079071 3.466006 -0.163800 0.387360 -0.535080 0.112270 31.461024 2.789031 0.954265 55.616512 5.933136 -4.828032 5.892071 32.273174 -0.509493 2.188086 -1.512379 -0.295590 0.227150 0.197920 0.004780 
0.481200 16.924720 0.565400 -0.480140 8.546455 1.837077 -14.773874 12.551373 2.807346 5.060068 -1.441071 -12.362872 -9.855661 5.377873 7.205926 -0.297887 3.747309 3.428184 -0.099010 -0.170250 -0.279300 18.639568 -11.686231 2.360774 -12.236436 -0.261915 -9.569232 3.002111 -4.265569 9.265773 0.150393 -3.867122 3.239859 0.071480 0.538210 -0.100410 -4.813324 0.604588 -6.733179 9.215099 1.993137 1.901656 -9.314895 1.918635 6.259537 -0.238294 -0.092920 -6.221573 -0.643164 -2.328199 27.266527 2.337290 -5.012910 6.082100 -31.579644 -3.185086 5.931028 -45.151405 -8.845380 6.881948 150.466699 -49.014461 -129.820235 -4.085420 3.363264 -0.144900 0.367560 -0.514400 0.113760 31.334527 3.868886 1.610690 56.754147 6.523919 -5.007974 4.344411 34.087697 -0.896271 2.172977 -1.490683 -0.284920 0.229070 0.198140 0.010140 
0.451930 16.922690 0.562560 -0.411325 8.230825 1.546469 -14.760595 12.542088 2.789081 5.379475 -1.347427 -11.936225 -10.092522 5.439736 7.037256 -0.288559 3.806144 3.411510 -0.082870 -0.150460 -0.282320 18.664087 -11.632389 2.379344 -12.104662 -0.270859 -9.258979 3.346362 -4.272545 8.794793 0.134118 -3.886488 3.236231 0.085530 0.544250 -0.106680 -4.860348 0.536494 -6.726376 9.980037 1.724348 1.671095 -10.845420 1.797769 7.405543 0.103218 -0.596217 -6.649414 -1.579411 -1.841452 27.618142 3.098270 -5.061640 5.728060 -31.023443 -4.333500 5.983324 -46.038743 -11.545784 7.965576 148.107218 -44.708270 -120.900536 -4.065646 3.302601 -0.139570 0.359000 -0.514420 0.126820 30.044402 5.091903 2.439344 58.117931 7.497181 -4.910465 4.869422 37.403509 -0.746860 2.143177 -1.509794 -0.287460 0.239560 0.191540 0.016050 
0.410820 16.911480 0.564770 -0.415772 8.075129 1.434935 -14.788655 12.549040 2.767379 6.003151 -1.288008 -11.832174 -10.506478 5.566571 6.918049 -0.306804 3.945625 3.385971 -0.096050 -0.160350 -0.311620 18.660168 -11.501694 2.391934 -11.656339 -0.253251 -8.894230 3.647270 -4.188111 7.997674 0.150373 -3.904208 3.251236 0.112400 0.602820 -0.129120 -4.804768 0.310014 -6.680823 10.470060 1.208711 1.287114 -11.859188 1.476233 8.680933 0.331653 -1.514343 -6.928717 -3.097306 -1.669226 26.771002 3.261130 -5.431460 5.537600 -29.696130 -4.863143 5.709585 -48.158794 -14.772469 9.710402 145.758395 -40.752700 -111.845861 -4.072461 3.226062 -0.160280 0.388200 -0.560030 0.138050 28.281033 5.901208 3.143652 59.493521 8.700745 -4.467613 6.431768 41.751329 -0.180537 2.089868 -1.536500 -0.326840 0.292520 0.211790 0.023810 
